<svg xmlns="http://www.w3.org/2000/svg" xmlns:xlink="http://www.w3.org/1999/xlink" width="500" zoomAndPan="magnify" viewBox="0 0 375 374.999991" height="500" preserveAspectRatio="xMidYMid meet" version="1.0">
  <title>be-a-react-dev icon</title>
  <defs>
    <g />
    <clipPath id="e82ad63846">
      <path d="M 114 85.605469 L 218 85.605469 L 218 229.605469 L 114 229.605469 Z M 114 85.605469 " clipRule="nonzero" />
    </clipPath>
  </defs>
  <rect x="-37.5" width="450" fill="#ffffff" y="-37.499999" height="449.999989" fill-opacity="1" />
  <rect x="-37.5" width="450" fill="#ffffff" y="-37.499999" height="449.999989" fill-opacity="1" />
  <rect x="-37.5" width="450" fill="#ffde59" y="-37.499999" height="449.999989" fill-opacity="1" />
  <g fill="#000000" fill-opacity="1">
    <g transform="translate(188.831931, 227.006865)">
      <g>
        <path d="M 5.820312 0 L 68.449219 0 L 68.449219 -7.828125 L 14.386719 -7.828125 L 14.386719 -34.699219 L 63.160156 -34.699219 L 63.160156 -42.316406 L 14.386719 -42.316406 L 14.386719 -66.757812 L 67.390625 -66.757812 L 67.390625 -74.585938 L 5.820312 -74.585938 Z M 5.820312 0 " />
      </g>
    </g>
  </g>
  <path fill="#fbcb00" d="M 190.65625 200.136719 L 179.898438 210.859375 L 151.554688 210.859375 L 140.796875 200.136719 Z M 131.589844 122.898438 C 150.445312 104.105469 181.015625 104.105469 199.867188 122.898438 C 217.890625 140.859375 218.683594 169.484375 202.261719 188.390625 L 129.191406 188.390625 C 112.773438 169.484375 113.566406 140.859375 131.589844 122.898438 Z M 131.589844 122.898438 " fill-opacity="1" fillRule="evenodd" />
  <g clip-path="url(#e82ad63846)">
    <path fill="#020203" d="M 130.902344 185.4375 L 200.550781 185.4375 C 224.597656 156.328125 203.78125 112.011719 165.726562 112.011719 C 127.671875 112.011719 106.855469 156.328125 130.902344 185.4375 Z M 141.871094 196.671875 L 189.582031 196.671875 L 194.417969 191.855469 L 137.042969 191.855469 Z M 171.871094 214.324219 L 159.585938 214.324219 L 165.730469 220.449219 Z M 153.148438 207.90625 L 178.308594 207.90625 L 183.144531 203.089844 L 148.3125 203.089844 Z M 185.894531 105.292969 L 192.917969 89.296875 C 194.644531 86.378906 195.808594 86.082031 198.605469 85.804688 C 200.09375 85.65625 200.289062 86.550781 200.84375 88.550781 C 202.34375 93.984375 199.355469 90.007812 195.585938 94.949219 L 188.472656 106.335938 C 187.621094 105.964844 186.761719 105.617188 185.894531 105.292969 Z M 145.566406 105.292969 L 138.542969 89.296875 C 136.8125 86.378906 135.644531 86.082031 132.851562 85.804688 C 131.367188 85.65625 131.167969 86.550781 130.617188 88.550781 C 129.113281 93.984375 132.101562 90.007812 135.871094 94.949219 L 142.984375 106.335938 C 143.835938 105.964844 144.695312 105.617188 145.566406 105.292969 Z M 129.3125 120.632812 C 149.425781 100.582031 182.035156 100.582031 202.148438 120.632812 C 222.257812 140.679688 222.257812 173.175781 202.148438 193.222656 L 165.730469 229.523438 L 129.3125 193.222656 C 109.203125 173.175781 109.203125 140.679688 129.3125 120.632812 Z M 129.3125 120.632812 " fill-opacity="1" fillRule="nonzero" />
  </g>
  <path fill="#f9b808" d="M 185.082031 124.703125 C 201.648438 141.214844 203.660156 166.738281 191.113281 185.4375 L 200.550781 185.4375 C 224.597656 156.328125 203.78125 112.011719 165.726562 112.011719 C 164.769531 112.011719 163.820312 112.042969 162.882812 112.09375 C 171.015625 114.15625 178.71875 118.359375 185.082031 124.703125 Z M 169.886719 207.90625 L 178.3125 207.90625 L 183.148438 203.089844 L 174.722656 203.089844 Z M 169.886719 207.90625 " fill-opacity="1" fillRule="evenodd" />
  <path fill="#ffffff" d="M 190.308594 134.9375 C 185.640625 134.9375 181.859375 138.707031 181.859375 143.359375 C 181.859375 148.011719 185.644531 151.78125 190.308594 151.78125 C 194.976562 151.78125 198.757812 148.011719 198.757812 143.359375 C 198.757812 138.707031 194.976562 134.9375 190.308594 134.9375 Z M 171.871094 214.324219 L 159.585938 214.324219 L 165.730469 220.449219 Z M 194.417969 191.855469 L 137.042969 191.855469 L 141.871094 196.671875 L 189.582031 196.671875 Z M 141.152344 134.9375 C 145.816406 134.9375 149.601562 138.707031 149.601562 143.359375 C 149.601562 148.011719 145.820312 151.78125 141.152344 151.78125 C 136.484375 151.78125 132.699219 148.011719 132.699219 143.359375 C 132.699219 138.707031 136.484375 134.9375 141.152344 134.9375 Z M 141.152344 134.9375 " fill-opacity="1" fillRule="evenodd" />
  <path fill="#020203" d="M 190.308594 137.347656 C 186.976562 137.347656 184.269531 140.039062 184.269531 143.363281 C 184.269531 146.683594 186.976562 149.378906 190.308594 149.378906 C 193.640625 149.378906 196.34375 146.683594 196.34375 143.363281 C 196.34375 142.394531 196.113281 141.480469 195.710938 140.671875 L 190.308594 143.363281 Z M 141.152344 137.347656 C 144.484375 137.347656 147.1875 140.039062 147.1875 143.363281 C 147.1875 146.683594 144.480469 149.378906 141.152344 149.378906 C 137.816406 149.378906 135.117188 146.683594 135.117188 143.363281 C 135.117188 142.394531 135.347656 141.480469 135.753906 140.671875 L 141.152344 143.359375 Z M 176.136719 161.367188 C 176.136719 167.097656 171.480469 171.742188 165.726562 171.742188 C 159.976562 171.742188 155.316406 167.097656 155.316406 161.367188 Z M 176.136719 161.367188 " fill-opacity="1" fillRule="evenodd" />
  <g fill="#000000" fill-opacity="1">
    <g transform="translate(106.484886, 284.580527)">
      <g>
        <path d="M 2.265625 0 L 2.265625 -14.953125 L 7.6875 -14.953125 C 8.695312 -14.953125 9.539062 -14.785156 10.21875 -14.453125 C 10.90625 -14.128906 11.414062 -13.664062 11.75 -13.0625 C 12.09375 -12.457031 12.265625 -11.742188 12.265625 -10.921875 C 12.265625 -9.992188 12.03125 -9.226562 11.5625 -8.625 C 11.101562 -8.019531 10.382812 -7.566406 9.40625 -7.265625 L 9.40625 -7.046875 C 9.882812 -6.859375 10.273438 -6.554688 10.578125 -6.140625 C 10.890625 -5.734375 11.175781 -5.125 11.4375 -4.3125 L 12.8125 0 L 11.015625 0 L 9.515625 -4.578125 C 9.335938 -5.109375 9.128906 -5.523438 8.890625 -5.828125 C 8.660156 -6.140625 8.367188 -6.363281 8.015625 -6.5 C 7.660156 -6.644531 7.210938 -6.71875 6.671875 -6.71875 L 4.015625 -6.71875 L 4.015625 0 Z M 7.65625 -8.203125 C 8.582031 -8.203125 9.273438 -8.414062 9.734375 -8.84375 C 10.191406 -9.28125 10.421875 -9.941406 10.421875 -10.828125 C 10.421875 -11.722656 10.191406 -12.382812 9.734375 -12.8125 C 9.273438 -13.25 8.582031 -13.46875 7.65625 -13.46875 L 4.015625 -13.46875 L 4.015625 -8.203125 Z M 7.65625 -8.203125 " />
      </g>
    </g>
  </g>
  <g fill="#000000" fill-opacity="1">
    <g transform="translate(126.204457, 284.580527)">
      <g>
        <path d="M 4.015625 -7.046875 L 4.015625 -1.453125 L 11.640625 -1.453125 L 11.640625 0 L 2.265625 0 L 2.265625 -14.953125 L 11.484375 -14.953125 L 11.484375 -13.5 L 4.015625 -13.5 L 4.015625 -8.5 L 10.59375 -8.5 L 10.59375 -7.046875 Z M 4.015625 -7.046875 " />
      </g>
    </g>
  </g>
  <g fill="#000000" fill-opacity="1">
    <g transform="translate(144.706801, 284.580527)">
      <g>
        <path d="M 13.46875 0 L 11.578125 0 L 10.203125 -4.109375 L 3.828125 -4.109375 L 2.4375 0 L 0.59375 0 L 5.8125 -14.953125 L 8.25 -14.953125 Z M 6.890625 -13.140625 L 4.3125 -5.578125 L 9.703125 -5.578125 L 7.140625 -13.140625 Z M 6.890625 -13.140625 " />
      </g>
    </g>
  </g>
  <g fill="#000000" fill-opacity="1">
    <g transform="translate(164.630951, 284.580527)">
      <g>
        <path d="M 8.265625 0.21875 C 6.953125 0.21875 5.785156 -0.078125 4.765625 -0.671875 C 3.742188 -1.273438 2.941406 -2.15625 2.359375 -3.3125 C 1.785156 -4.46875 1.5 -5.859375 1.5 -7.484375 C 1.5 -9.097656 1.785156 -10.484375 2.359375 -11.640625 C 2.941406 -12.796875 3.742188 -13.671875 4.765625 -14.265625 C 5.785156 -14.867188 6.953125 -15.171875 8.265625 -15.171875 C 9.660156 -15.171875 10.820312 -14.90625 11.75 -14.375 C 12.675781 -13.851562 13.347656 -13.054688 13.765625 -11.984375 L 12.640625 -11.25 L 12.375 -11.25 C 11.96875 -12.09375 11.4375 -12.691406 10.78125 -13.046875 C 10.125 -13.410156 9.285156 -13.59375 8.265625 -13.59375 C 7.328125 -13.59375 6.492188 -13.382812 5.765625 -12.96875 C 5.035156 -12.550781 4.453125 -11.882812 4.015625 -10.96875 C 3.585938 -10.0625 3.375 -8.898438 3.375 -7.484375 C 3.375 -6.054688 3.585938 -4.890625 4.015625 -3.984375 C 4.453125 -3.078125 5.035156 -2.414062 5.765625 -2 C 6.492188 -1.582031 7.328125 -1.375 8.265625 -1.375 C 9.347656 -1.375 10.234375 -1.613281 10.921875 -2.09375 C 11.609375 -2.582031 12.125 -3.375 12.46875 -4.46875 L 12.71875 -4.46875 L 13.890625 -3.890625 C 13.535156 -2.566406 12.878906 -1.550781 11.921875 -0.84375 C 10.960938 -0.132812 9.742188 0.21875 8.265625 0.21875 Z M 8.265625 0.21875 " />
      </g>
    </g>
  </g>
  <g fill="#000000" fill-opacity="1">
    <g transform="translate(185.168824, 284.580527)">
      <g>
        <path d="M 11.671875 -14.953125 L 11.671875 -13.46875 L 6.984375 -13.46875 L 6.984375 0 L 5.234375 0 L 5.234375 -13.46875 L 0.546875 -13.46875 L 0.546875 -14.953125 Z M 11.671875 -14.953125 " />
      </g>
    </g>
  </g>
  <g fill="#000000" fill-opacity="1">
    <g transform="translate(203.251785, 284.580527)">
      <g />
    </g>
  </g>
  <g fill="#000000" fill-opacity="1">
    <g transform="translate(214.256416, 284.580527)">
      <g>
        <path d="M 7.09375 -14.953125 C 8.613281 -14.953125 9.914062 -14.679688 11 -14.140625 C 12.09375 -13.597656 12.929688 -12.769531 13.515625 -11.65625 C 14.109375 -10.550781 14.40625 -9.160156 14.40625 -7.484375 C 14.40625 -5.804688 14.109375 -4.410156 13.515625 -3.296875 C 12.929688 -2.179688 12.09375 -1.351562 11 -0.8125 C 9.914062 -0.269531 8.613281 0 7.09375 0 L 2.265625 0 L 2.265625 -14.953125 Z M 6.921875 -1.5 C 8.171875 -1.5 9.203125 -1.691406 10.015625 -2.078125 C 10.835938 -2.460938 11.457031 -3.09375 11.875 -3.96875 C 12.300781 -4.851562 12.515625 -6.023438 12.515625 -7.484375 C 12.515625 -8.941406 12.300781 -10.109375 11.875 -10.984375 C 11.457031 -11.859375 10.835938 -12.488281 10.015625 -12.875 C 9.203125 -13.269531 8.171875 -13.46875 6.921875 -13.46875 L 4.015625 -13.46875 L 4.015625 -1.5 Z M 6.921875 -1.5 " />
      </g>
    </g>
  </g>
  <g fill="#000000" fill-opacity="1">
    <g transform="translate(236.021745, 284.580527)">
      <g>
        <path d="M 4.015625 -7.046875 L 4.015625 -1.453125 L 11.640625 -1.453125 L 11.640625 0 L 2.265625 0 L 2.265625 -14.953125 L 11.484375 -14.953125 L 11.484375 -13.5 L 4.015625 -13.5 L 4.015625 -8.5 L 10.59375 -8.5 L 10.59375 -7.046875 Z M 4.015625 -7.046875 " />
      </g>
    </g>
  </g>
  <g fill="#000000" fill-opacity="1">
    <g transform="translate(254.524086, 284.580527)">
      <g>
        <path d="M 8.140625 0 L 5.828125 0 L 0.640625 -14.953125 L 2.515625 -14.953125 L 6.90625 -2.203125 L 7.15625 -2.203125 L 11.5 -14.953125 L 13.34375 -14.953125 Z M 8.140625 0 " />
      </g>
    </g>
  </g>
  <g fill="#000000" fill-opacity="1">
    <g transform="translate(181.654094, 259.187311)">
      <g>
        <path d="M 4.65625 0.21875 C 3.539062 0.21875 2.671875 -0.0703125 2.046875 -0.65625 C 1.421875 -1.238281 1.109375 -2.066406 1.109375 -3.140625 C 1.109375 -3.804688 1.25 -4.367188 1.53125 -4.828125 C 1.8125 -5.296875 2.238281 -5.675781 2.8125 -5.96875 C 3.394531 -6.257812 4.15625 -6.484375 5.09375 -6.640625 C 5.90625 -6.773438 6.523438 -6.925781 6.953125 -7.09375 C 7.378906 -7.257812 7.664062 -7.445312 7.8125 -7.65625 C 7.957031 -7.875 8.03125 -8.144531 8.03125 -8.46875 C 8.03125 -8.976562 7.851562 -9.367188 7.5 -9.640625 C 7.15625 -9.910156 6.59375 -10.046875 5.8125 -10.046875 C 5.082031 -10.046875 4.457031 -9.90625 3.9375 -9.625 C 3.414062 -9.34375 2.9375 -8.921875 2.5 -8.359375 L 2.296875 -8.359375 L 1.46875 -9.515625 C 1.945312 -10.128906 2.554688 -10.613281 3.296875 -10.96875 C 4.035156 -11.332031 4.875 -11.515625 5.8125 -11.515625 C 7.144531 -11.515625 8.125 -11.21875 8.75 -10.625 C 9.382812 -10.039062 9.703125 -9.238281 9.703125 -8.21875 L 9.703125 -2.21875 C 9.703125 -1.59375 9.96875 -1.28125 10.5 -1.28125 C 10.675781 -1.28125 10.847656 -1.3125 11.015625 -1.375 L 11.15625 -1.328125 L 11.359375 -0.171875 C 11.234375 -0.0859375 11.066406 -0.0234375 10.859375 0.015625 C 10.660156 0.0546875 10.457031 0.078125 10.25 0.078125 C 9.625 0.078125 9.148438 -0.0546875 8.828125 -0.328125 C 8.515625 -0.597656 8.316406 -1 8.234375 -1.53125 L 8.015625 -1.5625 C 7.691406 -0.96875 7.253906 -0.519531 6.703125 -0.21875 C 6.160156 0.0703125 5.476562 0.21875 4.65625 0.21875 Z M 5.03125 -1.109375 C 5.65625 -1.109375 6.195312 -1.253906 6.65625 -1.546875 C 7.113281 -1.835938 7.46875 -2.242188 7.71875 -2.765625 C 7.96875 -3.296875 8.09375 -3.90625 8.09375 -4.59375 L 8.09375 -6.03125 L 7.890625 -6.078125 C 7.640625 -5.898438 7.332031 -5.75 6.96875 -5.625 C 6.613281 -5.507812 6.109375 -5.398438 5.453125 -5.296875 C 4.796875 -5.210938 4.273438 -5.078125 3.890625 -4.890625 C 3.503906 -4.710938 3.226562 -4.476562 3.0625 -4.1875 C 2.90625 -3.90625 2.828125 -3.554688 2.828125 -3.140625 C 2.828125 -2.484375 3.019531 -1.976562 3.40625 -1.625 C 3.800781 -1.28125 4.34375 -1.109375 5.03125 -1.109375 Z M 5.03125 -1.109375 " />
      </g>
    </g>
  </g>
</svg>
