<svg xmlns="http://www.w3.org/2000/svg" width="518" height="518" viewBox="0 0 518 518" version="1.1"><path d="M -0 259.002 L -0 518.004 259.250 517.752 L 518.500 517.500 518.752 258.750 L 519.004 0 259.502 0 L 0 0 -0 259.002 M 0.492 259.500 C 0.492 401.950, 0.608 460.076, 0.750 388.670 C 0.892 317.263, 0.892 200.713, 0.750 129.670 C 0.608 58.626, 0.492 117.050, 0.492 259.500 M 237 3.017 C 21.843 25.519, -74.022 281.268, 74.421 436.746 C 221.952 591.268, 482.527 507.328, 514.448 295 C 538.682 133.807, 398.367 -13.859, 237 3.017 M 230.278 182.247 C 182 230.232, 142.085 270.481, 141.578 271.687 C 139.294 277.120, 137.879 277, 204.422 277 C 267.182 277, 268 277.049, 268 280.776 C 268 282.117, 254.457 301.126, 200.159 376 C 172.275 414.451, 171.984 414.912, 174.375 416.897 C 177.377 419.388, 180.506 416.751, 236.555 364.500 C 267.824 335.350, 310.754 295.370, 331.954 275.655 C 382.909 228.271, 380.585 230.728, 377.429 227.571 C 376.036 226.179, 369.276 226, 318.129 226 C 259.345 226, 258 225.919, 258 222.373 C 258 221.698, 272.850 193.930, 291 160.666 C 326.833 94.994, 326.830 95, 319.446 95 C 318.682 95, 278.556 134.261, 230.278 182.247" stroke="none" fill="#f8f8f8" fill-rule="evenodd"/><path d="M 237 3.017 C 21.843 25.519, -74.022 281.268, 74.421 436.746 C 221.952 591.268, 482.527 507.328, 514.448 295 C 538.682 133.807, 398.367 -13.859, 237 3.017 M 230.278 182.247 C 182 230.232, 142.085 270.481, 141.578 271.687 C 139.294 277.120, 137.879 277, 204.422 277 C 267.182 277, 268 277.049, 268 280.776 C 268 282.117, 254.457 301.126, 200.159 376 C 172.275 414.451, 171.984 414.912, 174.375 416.897 C 177.377 419.388, 180.506 416.751, 236.555 364.500 C 267.824 335.350, 310.754 295.370, 331.954 275.655 C 382.909 228.271, 380.585 230.728, 377.429 227.571 C 376.036 226.179, 369.276 226, 318.129 226 C 259.345 226, 258 225.919, 258 222.373 C 258 221.698, 272.850 193.930, 291 160.666 C 326.833 94.994, 326.830 95, 319.446 95 C 318.682 95, 278.556 134.261, 230.278 182.247" stroke="none" fill="#52cac6" fill-rule="evenodd"/></svg>