<?xml version="1.0" encoding="UTF-8" standalone="no"?>
<svg
   width="518"
   height="518"
   viewBox="0 0 518 518"
   version="1.1"
   id="svg2"
   sodipodi:docname="chakraui_icon.svg"
   inkscape:version="1.3.1 (9b9bdc1480, 2023-11-25, custom)"
   xmlns:inkscape="http://www.inkscape.org/namespaces/inkscape"
   xmlns:sodipodi="http://sodipodi.sourceforge.net/DTD/sodipodi-0.dtd"
   xmlns="http://www.w3.org/2000/svg"
   xmlns:svg="http://www.w3.org/2000/svg">
  <defs
     id="defs2" />
  <sodipodi:namedview
     id="namedview2"
     pagecolor="#ffffff"
     bordercolor="#000000"
     borderopacity="0.25"
     inkscape:showpageshadow="2"
     inkscape:pageopacity="0.0"
     inkscape:pagecheckerboard="0"
     inkscape:deskcolor="#d1d1d1"
     inkscape:zoom="1.7104247"
     inkscape:cx="258.70767"
     inkscape:cy="259"
     inkscape:window-width="1854"
     inkscape:window-height="1131"
     inkscape:window-x="0"
     inkscape:window-y="0"
     inkscape:window-maximized="1"
     inkscape:current-layer="svg2" />
  <path
     d="M 237 3.017 C 21.843 25.519, -74.022 281.268, 74.421 436.746 C 221.952 591.268, 482.527 507.328, 514.448 295 C 538.682 133.807, 398.367 -13.859, 237 3.017 M 230.278 182.247 C 182 230.232, 142.085 270.481, 141.578 271.687 C 139.294 277.120, 137.879 277, 204.422 277 C 267.182 277, 268 277.049, 268 280.776 C 268 282.117, 254.457 301.126, 200.159 376 C 172.275 414.451, 171.984 414.912, 174.375 416.897 C 177.377 419.388, 180.506 416.751, 236.555 364.500 C 267.824 335.350, 310.754 295.370, 331.954 275.655 C 382.909 228.271, 380.585 230.728, 377.429 227.571 C 376.036 226.179, 369.276 226, 318.129 226 C 259.345 226, 258 225.919, 258 222.373 C 258 221.698, 272.850 193.930, 291 160.666 C 326.833 94.994, 326.830 95, 319.446 95 C 318.682 95, 278.556 134.261, 230.278 182.247"
     stroke="none"
     fill="#52cac6"
     fill-rule="evenodd"
     id="path2" />
  <path
     style="fill:#ffffff;stroke:none;stroke-width:0.58465;fill-opacity:1"
     d="m 174.75134,416.59233 c -2.31797,-1.69494 -1.96771,-2.22436 38.11989,-57.61716 50.86932,-70.29091 55.19085,-76.44789 55.19085,-78.63172 0,-1.65573 -1.03647,-2.30297 -4.6772,-2.92079 -1.44701,-0.24555 -28.67709,-0.6374 -60.51129,-0.87077 -34.31737,-0.25158 -58.59439,-0.65401 -59.63431,-0.98852 -3.87379,-1.24611 -3.54185,-1.67147 20.33936,-26.06374 22.14114,-22.61496 103.88851,-103.79949 138.10082,-137.14996 15.87203,-15.472204 17.70625,-17.081592 19.29345,-16.928525 1.63902,0.158064 1.74892,0.320261 1.67719,2.475226 -0.10303,3.095099 -8.27626,19.309039 -27.42484,54.404979 -30.80806,56.46571 -37.85716,69.91097 -37.34829,71.23708 0.83954,2.18782 3.20601,2.29361 60.46502,2.70331 57.74284,0.41316 59.01036,0.47183 59.89302,2.77201 0.88169,2.29764 1.54539,1.65401 -80.06345,77.64261 -107.8464,100.41922 -109.77292,102.19062 -117.09824,107.66973 -3.81043,2.85009 -4.95997,3.26216 -6.32198,2.26624 z"
     id="path7" />
</svg>
