<?xml version="1.0" encoding="utf-8"?>
<svg viewBox="0 0 443 443" xmlns="http://www.w3.org/2000/svg">
  <title>nodejs icon</title>
  <defs>
    <linearGradient id="b" x1="271.97" x2="211.104" y1="217.606" y2="341.772" gradientUnits="userSpaceOnUse">
      <stop offset="0.3" stop-color="#3e863d"/>
      <stop offset="0.5" stop-color="#55934f"/>
      <stop offset="0.8" stop-color="#5aad45"/>
    </linearGradient>
    <linearGradient id="d" x1="186.485" x2="297.349" y1="321.381" y2="239.465" gradientUnits="userSpaceOnUse">
      <stop offset="0.57" stop-color="#3e863d"/>
      <stop offset="0.72" stop-color="#619857"/>
      <stop offset="1" stop-color="#76ac64"/>
    </linearGradient>
    <linearGradient id="f" x1="197.051" x2="288.72" y1="279.652" y2="279.652" gradientUnits="userSpaceOnUse">
      <stop offset="0.16" stop-color="#6bbf47"/>
      <stop offset="0.38" stop-color="#79b461"/>
      <stop offset="0.47" stop-color="#75ac64"/>
      <stop offset="0.7" stop-color="#659e5a"/>
      <stop offset="0.9" stop-color="#3e863d"/>
    </linearGradient>
    <clipPath id="a">
      <path d="m239.03 226.605-42.13 24.317a5.085 5.085 0 0 0-2.546 4.406v48.668c0 1.817.968 3.496 2.546 4.406l42.133 24.336a5.1 5.1 0 0 0 5.09 0l42.126-24.336a5.096 5.096 0 0 0 2.54-4.406v-48.668c0-1.816-.97-3.496-2.55-4.406l-42.12-24.317a5.123 5.123 0 0 0-5.1 0"/>
    </clipPath>
    <clipPath id="c">
      <path d="M195.398 307.086a5.1 5.1 0 0 0 1.5 1.316l36.14 20.875 6.02 3.46c.9.52 1.926.74 2.934.665.336-.027.672-.09 1-.183l44.434-81.36c-.34-.37-.738-.68-1.184-.94l-27.586-15.93-14.582-8.39a5.318 5.318 0 0 0-1.32-.53zm0 0"/>
    </clipPath>
    <clipPath id="e">
      <path d="M241.066 225.953a5.14 5.14 0 0 0-2.035.652l-42.01 24.247 45.3 82.51c.63-.09 1.25-.3 1.81-.624l42.13-24.336a5.105 5.105 0 0 0 2.46-3.476l-46.18-78.89a5.29 5.29 0 0 0-1.03-.102l-.42.02"/>
    </clipPath>
  </defs>
  <g fill="#689f63" transform="matrix(1, 0, 0, 1, 0.314987, 86.034767)">
    <path d="M218.647 270.93a8.41 8.41 0 0 1-4.19-1.12l-13.337-7.896c-1.992-1.114-1.02-1.508-.363-1.735 2.656-.93 3.195-1.14 6.03-2.75.298-.17.688-.11.993.07l10.246 6.08c.37.2.895.2 1.238 0l39.95-23.06a1.26 1.26 0 0 0 .61-1.08v-46.1c0-.46-.24-.87-.618-1.1l-39.934-23.04a1.23 1.23 0 0 0-1.23 0l-39.926 23.04c-.387.22-.633.65-.633 1.09v46.1c0 .44.24.86.62 1.07l10.94 6.32c5.94 2.97 9.57-.53 9.57-4.05v-45.5a1.14 1.14 0 0 1 1.16-1.15h5.06c.63 0 1.15.5 1.15 1.15v45.52c0 7.92-4.32 12.47-11.83 12.47-2.31 0-4.13 0-9.21-2.5l-10.48-6.04a8.447 8.447 0 0 1-4.19-7.29v-46.1c0-3 1.6-5.8 4.19-7.28l39.99-23.07c2.53-1.43 5.89-1.43 8.4 0l39.94 23.08a8.43 8.43 0 0 1 4.19 7.28v46.1c0 2.99-1.61 5.78-4.19 7.28l-39.94 23.07a8.397 8.397 0 0 1-4.21 1.12"/>
    <path d="M230.987 239.164c-17.48 0-21.145-8.024-21.145-14.754a1.15 1.15 0 0 1 1.157-1.15h5.16c.57 0 1.05.415 1.14.978.78 5.258 3.1 7.91 13.67 7.91 8.42 0 12-1.902 12-6.367 0-2.57-1.02-4.48-14.1-5.76-10.94-1.08-17.7-3.49-17.7-12.24 0-8.06 6.8-12.86 18.19-12.86 12.79 0 19.13 4.44 19.93 13.98.03.33-.09.65-.31.89a1.19 1.19 0 0 1-.85.37h-5.19c-.54 0-1.01-.38-1.12-.9-1.25-5.53-4.27-7.3-12.48-7.3-9.19 0-10.26 3.2-10.26 5.6 0 2.91 1.26 3.76 13.66 5.4 12.28 1.63 18.11 3.93 18.11 12.56 0 8.7-7.26 13.69-19.92 13.69m48.66-48.89h1.34c1.1 0 1.31-.77 1.31-1.22 0-1.18-.81-1.18-1.26-1.18h-1.38zm-1.63-3.78h2.97c1.02 0 3.02 0 3.02 2.28 0 1.59-1.02 1.92-1.63 2.12 1.19.08 1.27.86 1.43 1.96.08.69.21 1.88.45 2.28h-1.83l-.33-2.72c-.12-.49-.29-.73-.9-.73h-1.51v3.46h-1.67zm-3.57 4.3c0 3.58 2.89 6.48 6.44 6.48 3.58 0 6.47-2.96 6.47-6.48 0-3.59-2.93-6.44-6.48-6.44-3.5 0-6.44 2.81-6.44 6.43m14.16.03c0 4.24-3.47 7.7-7.7 7.7a7.72 7.72 0 0 1-7.7-7.7c0-4.36 3.58-7.7 7.7-7.7 4.15 0 7.69 3.35 7.69 7.7"/>
  </g>
  <g fill-rule="evenodd" transform="matrix(1, 0, 0, 1, 0.314987, 86.034767)">
    <path fill="#333" d="M94.936 90.55c0-1.84-.97-3.53-2.558-4.445l-42.356-24.37a4.946 4.946 0 0 0-2.328-.67h-.438a5.03 5.03 0 0 0-2.34.67L2.562 86.105A5.154 5.154 0 0 0 0 90.555l.093 65.64a2.52 2.52 0 0 0 1.27 2.21 2.42 2.42 0 0 0 2.54 0l25.18-14.42c1.59-.946 2.56-2.618 2.56-4.44V108.88a5.1 5.1 0 0 1 2.555-4.43l10.72-6.174a5.086 5.086 0 0 1 2.56-.688c.876 0 1.77.226 2.544.687l10.715 6.172c1.586.91 2.56 2.6 2.56 4.43v30.663c0 1.82.983 3.5 2.565 4.44l25.164 14.41a2.5 2.5 0 0 0 2.56 0 2.57 2.57 0 0 0 1.268-2.21zm199.868 34.176a1.27 1.27 0 0 1-.64 1.106l-14.548 8.386a1.282 1.282 0 0 1-1.277 0l-14.55-8.386c-.4-.227-.64-.65-.64-1.106V107.93c0-.458.24-.88.63-1.11l14.54-8.4a1.29 1.29 0 0 1 1.29 0l14.55 8.4c.4.23.64.652.64 1.11zM298.734.324a2.57 2.57 0 0 0-2.544.027c-.78.46-1.262 1.3-1.262 2.21v65a1.79 1.79 0 0 1-2.684 1.55L281.634 63a5.11 5.11 0 0 0-5.112 0l-42.37 24.453a5.105 5.105 0 0 0-2.56 4.42v48.92a5.12 5.12 0 0 0 2.56 4.43l42.37 24.47c1.582.91 3.53.91 5.117 0l42.37-24.48c1.58-.92 2.56-2.6 2.56-4.43V18.863a5.128 5.128 0 0 0-2.63-4.47zm141.093 107.164a5.116 5.116 0 0 0 2.543-4.422V91.21a5.12 5.12 0 0 0-2.547-4.425l-42.1-24.44a5.11 5.11 0 0 0-5.13 0l-42.36 24.45c-1.59.92-2.56 2.6-2.56 4.43v48.9c0 1.84.99 3.54 2.58 4.45l42.09 23.99c1.55.89 3.45.9 5.02.03l25.46-14.15a2.56 2.56 0 0 0 1.31-2.22c0-.92-.49-1.78-1.29-2.23l-42.62-24.46a2.54 2.54 0 0 1-1.29-2.21v-15.34a2.54 2.54 0 0 1 1.28-2.216l13.26-7.65a2.53 2.53 0 0 1 2.55 0l13.27 7.65a2.55 2.55 0 0 1 1.28 2.21v12.06a2.58 2.58 0 0 0 1.28 2.22 2.57 2.57 0 0 0 2.56-.01zm0 0"/>
    <path fill="#689f63" d="M394.538 105.2a.97.97 0 0 1 .98 0l8.13 4.69a.98.98 0 0 1 .49.85v9.39a.98.98 0 0 1-.49.85l-8.13 4.69a.97.97 0 0 1-.98 0l-8.125-4.69a.98.98 0 0 1-.5-.85v-9.39a.97.97 0 0 1 .49-.85zm0 0"/>
  </g>
  <g clip-path="url(#a)" transform="matrix(1, 0, 0, 1, -77.991013, -77.981239)">
    <path fill="url(#b)" d="m331.363 246.793-118.715-58.19-60.87 124.174L270.49 370.97zm0 0"/>
  </g>
  <g clip-path="url(#c)" transform="matrix(1, 0, 0, 1, -77.991013, -77.981239)">
    <path fill="url(#d)" d="m144.07 264.004 83.825 113.453 110.86-81.906-83.83-113.45zm0 0"/>
  </g>
  <g clip-path="url(#e)" transform="matrix(1, 0, 0, 1, -77.991013, -77.981239)">
    <path fill="url(#f)" d="M197.02 225.934v107.43h91.683v-107.43zm0 0"/>
  </g>
</svg>