<!-- Generated by IcoMoon.io -->
<svg version="1.1" xmlns="http://www.w3.org/2000/svg" width="36" height="32" viewBox="0 0 36 32">
  <title>react icon</title>
  <path fill="#61dafb" d="M21.189 16c0 1.77-1.435 3.206-3.206 3.206s-3.206-1.435-3.206-3.206c0-1.77 1.435-3.206 3.206-3.206s3.206 1.435 3.206 3.206z"></path>
  <path fill="none" stroke="#61dafb" stroke-linejoin="miter" stroke-linecap="butt" stroke-miterlimit="4" stroke-width="1.5638" d="M35.185 16c0 3.627-7.701 6.568-17.201 6.568s-17.201-2.941-17.201-6.568c0-3.627 7.701-6.568 17.201-6.568s17.201 2.941 17.201 6.568z"></path>
  <path fill="none" stroke="#61dafb" stroke-linejoin="miter" stroke-linecap="butt" stroke-miterlimit="4" stroke-width="1.5638" d="M26.584 30.897c-3.141 1.814-9.539-3.386-14.289-11.613s-6.054-16.367-2.913-18.181c3.141-1.814 9.539 3.386 14.289 11.613s6.054 16.367 2.913 18.181z"></path>
  <path fill="none" stroke="#61dafb" stroke-linejoin="miter" stroke-linecap="butt" stroke-miterlimit="4" stroke-width="1.5638" d="M9.383 30.897c-3.141-1.814-1.837-9.953 2.913-18.181s11.147-13.427 14.289-11.613c3.141 1.814 1.837 9.953-2.913 18.181s-11.147 13.427-14.289 11.613z"></path>
</svg>
